Coordinates
version=1
nRows=7
nColumns=46
inDegrees=yes

Units are S.I. units (second, meters, Newtons, ...)
Angles are in degrees.

endheader
time	pelvis_tilt	pelvis_list	pelvis_rotation	pelvis_tx	pelvis_ty	pelvis_tz	bb_angle	bb_tx	bb_ty	bb_tz	hip_flexion_r	hip_adduction_r	hip_rotation_r	knee_angle_r	knee_angle_r_beta	ankle_angle_r	subtalar_angle_r	mtp_angle_r	crank_angle_r	hip_flexion_l	hip_adduction_l	hip_rotation_l	knee_angle_l	knee_angle_l_beta	ankle_angle_l	subtalar_angle_l	mtp_angle_l	crank_angle_l	lumbar_extension	lumbar_bending	lumbar_rotation	arm_flex_r	arm_add_r	arm_rot_r	elbow_flex_r	pro_sup_r	wrist_flex_r	wrist_dev_r	arm_flex_l	arm_add_l	arm_rot_l	elbow_flex_l	pro_sup_l	wrist_flex_l	wrist_dev_l
      2.50500000	    -23.54707687	      7.17432160	     -2.82868520	      0.25158963	      1.04682786	     -0.30454963	      0.00000000	      0.50000000	      0.00000000	      0.25000000	     58.68882059	     -7.95030305	      2.55193504	     43.50636594	      0.75932933	      2.90910076	     -3.98671099	      0.00000000	      0.00000000	     77.44876508	     -5.53032473	     -0.42429404	    111.66199551	      1.94886947	      5.17724105	     -3.83974804	      0.00000000	      0.00000000	    -60.09236943	      0.60187598	      1.09376168	     76.42232113	    -15.00703388	     23.20375517	     87.72691273	     47.04721625	      0.00000000	      0.00000000	     67.01049781	    -18.93609145	     14.59827698	     83.89515549	     45.98427635	      0.00000000	      0.00000000
      2.51000000	    -23.31937462	      7.01283766	     -2.77423330	      0.25073309	      1.04719633	     -0.30473192	      0.00000000	      0.50000000	      0.00000000	      0.25000000	     58.02637726	     -7.94980157	      2.29039284	     42.85825900	      0.74801773	      2.18844046	     -4.15490814	      0.00000000	      0.00000000	     77.66078561	     -5.58184289	     -0.21045724	    112.08448953	      1.95624338	      5.56655669	     -3.53352050	      0.00000000	      0.00000000	    -60.15897675	      0.70736358	      1.29035416	     76.69249162	    -15.31316304	     23.79451325	     86.95645412	     47.00541654	      0.00000000	      0.00000000	     67.73223788	    -19.20432287	     16.10304652	     82.73360342	     45.95040284	      0.00000000	      0.00000000
      2.51500000	    -23.30789374	      7.16662235	     -2.67340237	      0.24986381	      1.04708745	     -0.30504607	      0.00000000	      0.50000000	      0.00000000	      0.25000000	     57.80045701	     -8.21828722	      2.23880992	     42.54051969	      0.74247213	      1.86177157	     -3.90873109	      0.00000000	      0.00000000	     78.08471416	     -5.45023127	     -0.36077340	    112.45965270	      1.96279122	      5.78044993	     -3.70714869	      0.00000000	      0.00000000	    -60.03765892	      0.64824055	      1.12090544	     76.60698885	    -15.13674397	     23.32616283	     86.75540525	     46.93149125	      0.00000000	      0.00000000	     67.79977347	    -19.02191949	     15.84141068	     82.58902001	     45.91273420	      0.00000000	      0.00000000
      2.52000000	    -23.16572029	      6.96596306	     -2.61440791	      0.24914143	      1.04727989	     -0.30544151	      0.00000000	      0.50000000	      0.00000000	      0.25000000	     57.22120278	     -8.23143590	      1.90193573	     41.91885466	      0.73162203	      1.24457263	     -3.78256952	      0.00000000	      0.00000000	     78.40245591	     -5.49470465	     -0.09986650	    112.89663756	      1.97041804	      6.10269460	     -3.48813079	      0.00000000	      0.00000000	    -60.05030958	      0.79442430	      1.30491730	     76.70798630	    -15.17942010	     23.44102315	     86.26948723	     46.87925023	      0.00000000	      0.00000000	     68.20907239	    -19.01928127	     16.40555909	     81.96723260	     45.87604732	      0.00000000	      0.00000000
      2.52500000	    -23.09307558	      7.10769088	     -2.42043372	      0.24809734	      1.04727305	     -0.30573279	      0.00000000	      0.50000000	      0.00000000	      0.25000000	     56.91947447	     -8.53705645	      1.86234816	     41.58159986	      0.72573583	      0.79401505	     -3.60687949	      0.00000000	      0.00000000	     78.78064726	     -5.27405550	     -0.17344550	    113.24886851	      1.97656563	      6.39964599	     -3.59683625	      0.00000000	      0.00000000	    -59.97665305	      0.78171198	      1.08108936	     76.67055084	    -15.05193268	     23.14286413	     85.99802168	     46.81452270	      0.00000000	      0.00000000	     68.44705316	    -18.85546638	     16.30655987	     81.75589922	     45.84209903	      0.00000000	      0.00000000
      2.53000000	    -22.98044041	      6.99061043	     -2.38292077	      0.24737073	      1.04745493	     -0.30593518	      0.00000000	      0.50000000	      0.00000000	      0.25000000	     56.43229772	     -8.54883234	      1.60435722	     41.05949601	      0.71662339	      0.18929801	     -3.68719446	      0.00000000	      0.00000000	     79.11195262	     -5.33234971	     -0.02383613	    113.64469666	      1.98347413	      6.74017027	     -3.43011153	      0.00000000	      0.00000000	    -59.95061436	      0.84588477	      1.17848123	     76.81468311	    -15.05716060	     23.24529936	     85.31684694	     46.73166190	      0.00000000	      0.00000000	     68.84151268	    -18.87377366	     16.99289681	     80.91244467	     45.78505210	      0.00000000	      0.00000000
      2.53500000	    -22.93916045	      7.14013826	     -2.20431469	      0.24635877	      1.04736252	     -0.30611357	      0.00000000	      0.50000000	      0.00000000	      0.25000000	     56.19958066	     -8.82569755	      1.59218233	     40.81861740	      0.71241927	     -0.09324824	     -3.54074987	      0.00000000	      0.00000000	     79.51573426	     -5.13480294	     -0.09167181	    113.97700204	      1.98927396	      7.07034542	     -3.64368566	      0.00000000	      0.00000000	    -59.84825628	      0.78735369	      0.96005848	     76.79631741	    -14.94751514	     22.87076234	     85.10440987	     46.66447745	      0.00000000	      0.00000000	     68.92584492	    -18.70507992	     16.80583593	     80.79175675	     45.75639881	      0.00000000	      0.00000000
